# xmcd
#
# Track frame offsets:
#	150
#	13785
#	26225
#	36992
#	44802
#	53517
#	66762
#	81810
#	95727
#	101167
#	115230
#	125550
#	139100
#	153532
#	167857
#	175097
#	179472
#	186332
#	194677
#	203522
#	210422
#	221595
#	234285
#	248222
#	256915
#
# Disc length: 3654 seconds
#
# Revision: 0
# Processed by: cddbd v1.5.2PL0 Copyright (c) Steve Scherf et al.
# Submitted via: EasyCDDAExtractor 16.0.6.1
#
DISCID=720e4419
DTITLE=Συλλογικός δίσκος - Europaische Freiwillige-N.S.D.A.P.
DYEAR=1993
DGENRE=Εθνικοσοσιαλιστική
TTITLE0=Άγνωστος - Suomi marssi
TTITLE1=Άγνωστος - Liisa Pien
TTITLE2=Άγνωστος - Sotapojat marssivat
TTITLE3=Χορωδία - Budstikken gikk
TTITLE4=Χορωδία - Pa Vikingtog
TTITLE5=Χορωδία - Kamerat, vi marsjerer
TTITLE6=Χορωδία - Friheten leve
TTITLE7=Άνευ ερμηνευτού - Ledarens marsch
TTITLE8=Χορωδία - Vi er danske legionaerer
TTITLE9=Χορωδία - C'est la lutte finale
TTITLE10=Χορωδία - Vlaamserex lied
TTITLE11=Χορωδία - Battaglioni della morte
TTITLE12=Χορωδία - Giovinezza
TTITLE13=Χορωδία - Cara al sol
TTITLE14=Χορωδία - Canto a la division azul
TTITLE15=Χορωδία - Au Revoir petite Monique
TTITLE16=Χορωδία - SS Charlemagne 10.3.1944: Sturm
TTITLE17=Άγνωστος - British soldier's song
TTITLE18=Άνευ ερμηνευτού - Isaszegi marsch
TTITLE19=Άγνωστος - Soldatenlied der honved
TTITLE20=Χορωδία - Imnul Biruintii legionare
TTITLE21=Άνευ ερμηνευτού - Kosakenmarsch der ulanen regiment bug
TTITLE22=Χορωδία - Lied der Estnischen Legion
TTITLE23=Άγνωστος - Lied der Estnischen Batallion
TTITLE24=Άνευ ερμηνευτού - SS Polizei Oslo:Deutschlandlied/Horst Wessel marsch
TTITLE24=/WennAlleUntreuWerden
EXTD=
EXTT0=
EXTT1=
EXTT2=
EXTT3=
EXTT4=
EXTT5=
EXTT6=
EXTT7=
EXTT8=
EXTT9=
EXTT10=
EXTT11=
EXTT12=
EXTT13=
EXTT14=
EXTT15=
EXTT16=
EXTT17=
EXTT18=
EXTT19=
EXTT20=
EXTT21=
EXTT22=
EXTT23=
EXTT24=
PLAYORDER=
